<?xml version="1.0" standalone="no"?>
<!DOCTYPE svg PUBLIC "-//W3C//DTD SVG 20010904//EN"
 "http://www.w3.org/TR/2001/REC-SVG-20010904/DTD/svg10.dtd">
<svg version="1.0" xmlns="http://www.w3.org/2000/svg"
 width="1212.000000pt" height="922.000000pt" viewBox="0 0 1212.000000 922.000000"
 preserveAspectRatio="xMidYMid meet">

<g transform="translate(0.000000,922.000000) scale(0.100000,-0.100000)"
fill="#000000" stroke="none">
<path d="M0 4610 l0 -4610 6060 0 6060 0 0 4610 0 4610 -6060 0 -6060 0 0
-4610z m7735 3825 c281 -25 518 -45 528 -45 32 0 18 -30 -30 -63 -76 -52 -406
-341 -557 -487 -214 -207 -352 -364 -540 -615 -182 -242 -220 -305 -257 -424
-21 -70 -21 -80 -10 -185 7 -61 16 -176 22 -256 20 -311 28 -406 32 -420 3 -8
8 -34 11 -58 l6 -43 -32 18 c-22 11 -64 18 -126 21 l-93 4 -49 48 c-88 85
-207 112 -298 68 -90 -45 -283 -260 -429 -479 l-64 -96 -77 -7 c-42 -4 -97
-12 -121 -17 -24 -5 -46 -8 -48 -5 -2 2 12 30 33 61 36 56 57 135 36 135 -5 0
-13 -12 -16 -26 -16 -64 -86 -187 -116 -205 l-31 -19 -37 30 c-20 16 -41 30
-47 30 -43 1 -35 29 85 294 28 62 23 134 -14 211 -32 63 -33 112 -5 167 18 36
20 52 15 115 -10 108 2 136 119 276 120 144 247 267 376 364 165 124 231 201
391 453 46 74 129 205 183 290 54 85 152 230 219 322 114 157 333 499 359 561
9 21 18 27 42 27 17 0 260 -20 540 -45z m-6095 -3087 l0 -353 475 0 475 0 0
353 0 352 115 0 115 0 -2 -882 -3 -883 -110 0 -110 0 -3 438 -2 437 -475 0
-475 0 -2 -437 -3 -438 -110 0 -110 0 -3 883 -2 882 115 0 115 0 0 -352z
m3143 -455 c3 -721 5 -815 20 -872 10 -35 16 -65 15 -66 -3 -1 -81 -19 -183
-42 -18 -4 -23 5 -40 79 -18 78 -20 132 -23 896 l-3 812 105 0 105 0 4 -807z
m2037 17 l0 -790 360 0 360 0 0 -90 0 -90 -471 -2 c-259 -2 -473 -1 -475 1 -2
2 -4 400 -4 883 l0 878 115 0 115 0 0 -790z m1222 759 c52 -42 67 -93 44 -153
-21 -56 -68 -86 -133 -86 -39 0 -50 5 -83 38 -49 48 -59 96 -34 149 42 84 138
109 206 52z m2078 -499 c0 -291 4 -530 8 -530 5 0 38 30 73 68 35 37 162 170
283 295 l220 228 65 -65 64 -65 -125 -128 c-206 -210 -367 -378 -368 -383 0
-6 63 -73 323 -343 109 -113 218 -227 242 -254 l44 -48 -122 -3 -122 -3 -34
38 c-19 21 -100 107 -180 192 -80 84 -161 170 -180 190 -85 92 -182 191 -186
191 -3 0 -5 -137 -5 -305 l0 -305 -100 0 -100 0 0 880 0 880 100 0 100 0 0
-530z m-3091 239 c1 -15 -6 -29 -14 -33 -12 -4 -15 6 -14 62 l1 67 13 -35 c7
-19 14 -47 14 -61z m-3114 -203 c138 -44 221 -116 285 -250 43 -90 60 -173 67
-318 l6 -128 -451 0 -451 0 4 -27 c2 -16 7 -54 10 -85 13 -136 94 -255 200
-292 116 -41 298 -30 471 30 39 13 75 24 81 24 8 0 63 -133 63 -154 0 -10
-216 -74 -290 -86 -114 -17 -283 -14 -361 8 -242 67 -390 297 -389 605 1 298
107 533 286 633 90 51 141 62 276 63 98 1 130 -3 193 -23z m1459 -58 c9 -46
16 -96 16 -113 0 -38 10 -75 20 -75 4 0 26 31 48 68 48 80 112 142 179 174 41
20 64 23 158 23 99 0 116 -3 169 -27 107 -51 184 -159 228 -323 26 -93 36
-377 18 -478 -28 -160 -103 -307 -192 -380 -54 -45 -136 -83 -208 -98 -53 -11
-280 -7 -377 7 l-43 6 0 -246 0 -246 -100 0 -100 0 0 738 c0 666 -5 840 -26
969 l-6 41 83 20 c123 29 114 34 133 -60z m3309 5 c9 -43 19 -104 23 -135 8
-76 28 -77 73 -3 42 69 110 131 192 175 57 30 75 35 157 38 170 8 282 -49 351
-177 59 -111 63 -148 68 -653 l5 -458 -105 0 -106 0 -3 458 c-3 418 -5 461
-22 506 -38 99 -97 136 -219 136 -59 0 -81 -5 -125 -28 -71 -38 -145 -111
-209 -209 l-53 -81 0 -391 0 -391 -99 0 -99 0 -5 543 c-4 437 -8 557 -21 621
-9 44 -15 80 -13 81 5 3 173 43 183 44 6 1 18 -34 27 -76z m-623 -578 l0 -635
-100 0 -100 0 0 635 0 635 100 0 100 0 0 -635z m-1653 103 c-2 -18 -4 -4 -4
32 0 36 2 50 4 33 2 -18 2 -48 0 -65z m1118 -41 c149 -154 139 -136 145 -268
l5 -116 -52 26 c-32 17 -67 46 -89 74 -43 56 -57 56 -20 0 14 -20 26 -41 26
-45 0 -5 -49 -8 -108 -8 l-108 0 -32 65 c-54 110 -52 173 8 205 28 15 47 2
104 -69 27 -34 51 -59 53 -57 2 2 -15 33 -37 69 -52 82 -60 131 -30 170 34 43
57 35 135 -46z m-1077 -811 c30 -44 32 -52 32 -131 l0 -85 -155 0 -155 0 0
146 0 145 45 56 c58 71 129 216 155 318 11 44 24 125 28 180 5 76 8 17 12
-242 l5 -341 33 -46z m-1438 569 c0 -104 -3 -128 -17 -145 -10 -11 -21 -20
-25 -20 -5 0 -8 57 -8 127 0 104 3 130 17 145 9 10 20 18 25 18 4 0 8 -56 8
-125z m-70 -605 c-112 -181 -191 -358 -190 -427 2 -73 51 -150 117 -183 38
-19 48 -21 95 -10 51 10 157 43 245 74 26 10 82 16 156 17 104 1 117 -1 150
-22 39 -26 57 -56 57 -93 0 -33 -13 -41 -110 -66 -47 -12 -114 -35 -150 -52
-36 -17 -104 -47 -151 -68 -47 -20 -119 -55 -160 -77 -41 -22 -92 -49 -114
-61 -22 -12 -87 -32 -145 -46 -58 -14 -150 -40 -205 -56 -55 -17 -138 -39
-185 -51 -167 -39 -260 -131 -468 -467 -79 -127 -155 -250 -168 -274 -89 -158
-208 -413 -279 -598 -20 -52 -42 -111 -50 -130 -40 -101 -125 -347 -131 -378
-8 -43 -31 -92 -43 -92 -4 0 -20 26 -34 57 -14 32 -87 183 -161 336 -75 153
-136 279 -136 281 0 2 -36 79 -81 170 -80 165 -80 167 -60 184 41 35 256 323
379 507 69 105 212 304 317 442 324 430 354 479 405 658 40 136 125 362 144
383 2 1 38 11 82 23 113 30 210 65 243 89 68 48 92 141 57 225 -15 35 -15 39
0 57 10 10 19 16 21 14 2 -2 8 -40 13 -85 13 -116 48 -237 78 -273 30 -35 94
-67 135 -68 44 0 227 40 272 59 52 23 102 81 111 127 4 22 0 72 -10 123 -21
109 -20 140 2 171 16 24 17 20 20 -141 l2 -166 -70 -113z m3381 299 c3 -6 7
-54 8 -107 1 -52 8 -109 15 -126 24 -57 81 -93 171 -108 26 -4 83 -164 131
-370 56 -236 76 -278 318 -646 126 -191 296 -465 296 -476 0 -22 329 -544 378
-599 15 -17 14 -22 -8 -65 -13 -26 -35 -64 -47 -84 -13 -21 -36 -62 -52 -90
-16 -29 -89 -159 -163 -288 -74 -129 -146 -255 -160 -280 -38 -68 -100 -174
-105 -180 -10 -11 -33 35 -39 79 -3 25 -17 87 -31 136 -13 50 -27 99 -30 110
-95 351 -249 769 -363 988 -230 442 -254 481 -350 578 -63 64 -97 91 -130 102
-25 8 -110 38 -190 67 -260 93 -305 108 -337 115 -18 3 -51 21 -75 39 -63 48
-109 76 -243 146 -66 34 -140 74 -165 89 -25 14 -85 40 -135 56 -90 30 -90 30
-93 66 -2 28 3 43 20 61 36 37 73 48 163 48 88 0 102 -4 332 -94 140 -54 188
-51 252 19 39 42 61 95 61 146 0 44 -35 160 -79 257 l-41 92 33 30 c38 35 42
36 59 11 29 -41 77 -55 206 -59 139 -5 200 6 251 45 50 38 61 76 61 204 l0
112 37 -6 c20 -4 40 -11 44 -18z"/>
<path d="M3592 5041 c-67 -23 -133 -86 -162 -154 -22 -50 -53 -182 -48 -199 2
-5 152 -10 342 -11 l338 -2 -5 65 c-12 149 -94 267 -208 303 -74 23 -188 22
-257 -2z"/>
<path d="M5680 5031 c-83 -26 -158 -101 -235 -238 l-50 -88 0 -295 0 -295 60
-12 c176 -36 308 -24 405 35 116 71 172 275 150 547 -21 258 -88 356 -242 354
-35 0 -74 -4 -88 -8z m114 -693 c-13 -23 -37 -48 -46 -48 -10 0 -11 44 -1 53
3 4 17 7 30 7 17 0 22 -4 17 -12z"/>
</g>
</svg>
